<svg width="15" height="13" viewBox="0 0 15 13" fill="none" xmlns="http://www.w3.org/2000/svg">
<path d="M0 1.60714C0 1.1809 0.169324 0.772119 0.470721 0.470721C0.772119 0.169324 1.1809 0 1.60714 0H4.56857C5.595 0 6.45429 0.6 7.04464 1.26857C7.48393 1.76571 8.01429 2.14286 8.57143 2.14286H13.3929C13.8191 2.14286 14.2279 2.31218 14.5293 2.61358C14.8307 2.91498 15 3.32376 15 3.75V11.25C15 11.6762 14.8307 12.085 14.5293 12.3864C14.2279 12.6878 13.8191 12.8571 13.3929 12.8571H1.60714C1.1809 12.8571 0.772119 12.6878 0.470721 12.3864C0.169324 12.085 0 11.6762 0 11.25V1.60714ZM1.60714 1.07143C1.46506 1.07143 1.3288 1.12787 1.22834 1.22834C1.12787 1.3288 1.07143 1.46506 1.07143 1.60714V4.28571H13.9286V3.75C13.9286 3.60792 13.8721 3.47166 13.7717 3.37119C13.6712 3.27073 13.5349 3.21429 13.3929 3.21429H8.57143C7.53857 3.21429 6.73929 2.54036 6.24214 1.97786C5.75786 1.42929 5.16429 1.07143 4.56857 1.07143H1.60714ZM13.9286 5.35714H1.07143V11.25C1.07143 11.3921 1.12787 11.5283 1.22834 11.6288C1.3288 11.7293 1.46506 11.7857 1.60714 11.7857H13.3929C13.5349 11.7857 13.6712 11.7293 13.7717 11.6288C13.8721 11.5283 13.9286 11.3921 13.9286 11.25V5.35714Z" fill="#767676"/>
</svg>
