<svg width="43" height="43" viewBox="0 0 43 43" fill="none" xmlns="http://www.w3.org/2000/svg">
<path d="M12.3197 21.2134C12.3195 21.0901 12.3437 20.9679 12.3908 20.854C12.4379 20.74 12.5071 20.6365 12.5943 20.5493C12.6815 20.4621 12.785 20.3929 12.899 20.3458C13.0129 20.2987 13.1351 20.2745 13.2584 20.2747L20.276 20.276L20.2746 13.2584C20.2746 13.1352 20.2989 13.0131 20.3461 12.8992C20.3933 12.7853 20.4624 12.6818 20.5496 12.5947C20.6367 12.5075 20.7402 12.4384 20.8541 12.3912C20.968 12.344 21.0901 12.3197 21.2133 12.3197C21.3366 12.3197 21.4587 12.344 21.5725 12.3912C21.6864 12.4384 21.7899 12.5075 21.8771 12.5947C21.9642 12.6818 22.0334 12.7853 22.0806 12.8992C22.1277 13.0131 22.152 13.1352 22.152 13.2584L22.1507 20.276L29.1683 20.2747C29.2915 20.2747 29.4136 20.299 29.5275 20.3461C29.6414 20.3933 29.7449 20.4625 29.832 20.5496C29.9192 20.6368 29.9883 20.7403 30.0355 20.8542C30.0827 20.968 30.107 21.0901 30.107 21.2134C30.107 21.3366 30.0827 21.4587 30.0355 21.5726C29.9883 21.6865 29.9192 21.79 29.832 21.8771C29.7449 21.9643 29.6414 22.0334 29.5275 22.0806C29.4136 22.1278 29.2915 22.1521 29.1683 22.1521L22.1507 22.1507L22.152 29.1683C22.152 29.2916 22.1277 29.4137 22.0806 29.5275C22.0334 29.6414 21.9642 29.7449 21.8771 29.8321C21.7899 29.9192 21.6864 29.9884 21.5725 30.0356C21.4587 30.0827 21.3366 30.107 21.2133 30.107C21.0901 30.107 20.968 30.0827 20.8541 30.0356C20.7402 29.9884 20.6367 29.9192 20.5496 29.8321C20.4624 29.7449 20.3933 29.6414 20.3461 29.5275C20.2989 29.4137 20.2746 29.2916 20.2746 29.1683L20.276 22.1507L13.2584 22.1521C13.1351 22.1522 13.0129 22.128 12.899 22.0809C12.785 22.0338 12.6815 21.9647 12.5943 21.8775C12.5071 21.7903 12.4379 21.6867 12.3908 21.5728C12.3437 21.4588 12.3195 21.3367 12.3197 21.2134Z" fill="#D6D6D6"/>
</svg>
