<svg width="30" height="30" viewBox="0 0 30 30" fill="none" xmlns="http://www.w3.org/2000/svg">
<g opacity="0.5">
<circle cx="15.5" cy="15.5" r="14.5" fill="white"/>
<path d="M9.27543 9.27543C9.36251 9.18812 9.46597 9.11885 9.57986 9.07159C9.69376 9.02433 9.81586 9 9.93918 9C10.0625 9 10.1846 9.02433 10.2985 9.07159C10.4124 9.11885 10.5158 9.18812 10.6029 9.27543L15.5642 14.2386L20.5254 9.27543C20.6126 9.18826 20.7161 9.11912 20.83 9.07194C20.9438 9.02477 21.0659 9.00049 21.1892 9.00049C21.3124 9.00049 21.4345 9.02477 21.5484 9.07194C21.6623 9.11912 21.7658 9.18826 21.8529 9.27543C21.9401 9.36259 22.0092 9.46607 22.0564 9.57996C22.1036 9.69384 22.1279 9.81591 22.1279 9.93918C22.1279 10.0624 22.1036 10.1845 22.0564 10.2984C22.0092 10.4123 21.9401 10.5158 21.8529 10.6029L16.8898 15.5642L21.8529 20.5254C21.9401 20.6126 22.0092 20.7161 22.0564 20.83C22.1036 20.9438 22.1279 21.0659 22.1279 21.1892C22.1279 21.3124 22.1036 21.4345 22.0564 21.5484C22.0092 21.6623 21.9401 21.7658 21.8529 21.8529C21.7658 21.9401 21.6623 22.0092 21.5484 22.0564C21.4345 22.1036 21.3124 22.1279 21.1892 22.1279C21.0659 22.1279 20.9438 22.1036 20.83 22.0564C20.7161 22.0092 20.6126 21.9401 20.5254 21.8529L15.5642 16.8898L10.6029 21.8529C10.5158 21.9401 10.4123 22.0092 10.2984 22.0564C10.1845 22.1036 10.0624 22.1279 9.93918 22.1279C9.81591 22.1279 9.69384 22.1036 9.57996 22.0564C9.46607 22.0092 9.36259 21.9401 9.27543 21.8529C9.18826 21.7658 9.11912 21.6623 9.07194 21.5484C9.02477 21.4345 9.00049 21.3124 9.00049 21.1892C9.00049 21.0659 9.02477 20.9438 9.07194 20.83C9.11912 20.7161 9.18826 20.6126 9.27543 20.5254L14.2386 15.5642L9.27543 10.6029C9.18812 10.5158 9.11885 10.4124 9.07159 10.2985C9.02433 10.1846 9 10.0625 9 9.93918C9 9.81586 9.02433 9.69376 9.07159 9.57986C9.11885 9.46597 9.18812 9.36251 9.27543 9.27543Z" fill="#242424"/>
</g>
</svg>
